<svg width="59" height="53" viewBox="0 0 59 53" fill="none" xmlns="http://www.w3.org/2000/svg">
<path d="M35.754 5.88889L41.1525 11.7778H53.1V47.1111H5.9V11.7778H17.8475L23.246 5.88889H35.754ZM38.35 0H20.65L15.2515 5.88889H5.9C2.655 5.88889 0 8.53889 0 11.7778V47.1111C0 50.35 2.655 53 5.9 53H53.1C56.345 53 59 50.35 59 47.1111V11.7778C59 8.53889 56.345 5.88889 53.1 5.88889H43.7485L38.35 0ZM29.5 20.6111C34.3675 20.6111 38.35 24.5861 38.35 29.4444C38.35 34.3028 34.3675 38.2778 29.5 38.2778C24.6325 38.2778 20.65 34.3028 20.65 29.4444C20.65 24.5861 24.6325 20.6111 29.5 20.6111ZM29.5 14.7222C21.358 14.7222 14.75 21.3178 14.75 29.4444C14.75 37.5711 21.358 44.1667 29.5 44.1667C37.642 44.1667 44.25 37.5711 44.25 29.4444C44.25 21.3178 37.642 14.7222 29.5 14.7222Z" fill="white"/>
</svg>
