<svg width="220" height="63" viewBox="0 0 220 63" fill="none" xmlns="http://www.w3.org/2000/svg">
<path d="M69.622 56.2913C70.5963 56.2913 71.4107 56.0185 72.0654 55.473C72.7279 54.9196 73.0864 54.2065 73.141 53.3335H74.4854C74.4465 54.1051 74.2049 54.8105 73.7606 55.4496C73.3163 56.0809 72.724 56.5758 71.9836 56.9343C71.251 57.2928 70.4638 57.4721 69.622 57.4721C67.962 57.4721 66.6448 56.8953 65.6705 55.7419C64.7041 54.5884 64.2209 53.0374 64.2209 51.0889V50.668C64.2209 49.421 64.4391 48.3182 64.8756 47.3595C65.312 46.4009 65.9355 45.6605 66.7461 45.1383C67.5645 44.6161 68.5192 44.355 69.6104 44.355C70.9977 44.355 72.1395 44.7681 73.0358 45.5942C73.9399 46.4204 74.4231 47.5076 74.4854 48.856H73.141C73.0786 47.8661 72.7201 47.0673 72.0654 46.4593C71.4185 45.8514 70.6002 45.5475 69.6104 45.5475C68.3477 45.5475 67.3657 46.0034 66.6643 46.9153C65.9706 47.8272 65.6238 49.1054 65.6238 50.7499V51.159C65.6238 52.7724 65.9706 54.0311 66.6643 54.9352C67.3657 55.8393 68.3516 56.2913 69.622 56.2913Z" fill="white"/>
<path d="M85.6034 44.5888H87.0063V57.2383H85.6034V46.8451L78.776 57.2383H77.3848V44.5888H78.776V54.9936L85.6034 44.5888Z" fill="white"/>
<path d="M95.4354 56.2913C96.4096 56.2913 97.2241 56.0185 97.8788 55.473C98.5413 54.9196 98.8998 54.2065 98.9543 53.3335H100.299C100.26 54.1051 100.018 54.8105 99.5739 55.4496C99.1297 56.0809 98.5374 56.5758 97.7969 56.9343C97.0643 57.2928 96.2771 57.4721 95.4354 57.4721C93.7753 57.4721 92.4581 56.8953 91.4839 55.7419C90.5174 54.5884 90.0342 53.0374 90.0342 51.0889V50.668C90.0342 49.421 90.2525 48.3182 90.6889 47.3595C91.1254 46.4009 91.7489 45.6605 92.5594 45.1383C93.3778 44.6161 94.3326 44.355 95.4237 44.355C96.811 44.355 97.9528 44.7681 98.8491 45.5942C99.7532 46.4204 100.236 47.5076 100.299 48.856H98.9543C98.892 47.8661 98.5335 47.0673 97.8788 46.4593C97.2319 45.8514 96.4135 45.5475 95.4237 45.5475C94.1611 45.5475 93.1791 46.0034 92.4776 46.9153C91.784 47.8272 91.4371 49.1054 91.4371 50.7499V51.159C91.4371 52.7724 91.784 54.0311 92.4776 54.9352C93.1791 55.8393 94.165 56.2913 95.4354 56.2913Z" fill="white"/>
<path d="M112.188 45.7813H107.582V57.2383H106.179V45.7813H101.748V44.5888H112.188V45.7813Z" fill="white"/>
<path d="M118.455 57.4721C117.379 57.4721 116.405 57.2071 115.532 56.6771C114.667 56.1471 113.993 55.4106 113.509 54.4676C113.026 53.5167 112.785 52.4528 112.785 51.276V50.7733C112.785 49.5574 113.018 48.4624 113.486 47.4881C113.961 46.5139 114.62 45.7501 115.462 45.1967C116.304 44.6356 117.215 44.355 118.197 44.355C119.733 44.355 120.949 44.8811 121.845 45.9332C122.749 46.9776 123.201 48.4078 123.201 50.2238V51.0071H114.176V51.276C114.176 52.71 114.585 53.9064 115.403 54.865C116.229 55.8159 117.266 56.2913 118.513 56.2913C119.261 56.2913 119.92 56.1549 120.489 55.8821C121.066 55.6094 121.588 55.1729 122.055 54.5728L122.932 55.2391C121.903 56.7278 120.411 57.4721 118.455 57.4721ZM118.197 45.5475C117.145 45.5475 116.257 45.9332 115.532 46.7048C114.815 47.4764 114.378 48.513 114.223 49.8146H121.81V49.6626C121.771 48.4468 121.424 47.457 120.769 46.6932C120.115 45.9294 119.257 45.5475 118.197 45.5475Z" fill="white"/>
<path d="M132.928 55.3444L137.955 44.5888H139.685V57.2383H138.282V46.8568L133.419 57.2383H132.425L127.468 46.623V57.2383H126.077V44.5888H127.913L132.928 55.3444Z" fill="white"/>
<path d="M151.423 57.2383C151.282 56.8408 151.193 56.2524 151.154 55.473C150.663 56.1121 150.035 56.607 149.272 56.9577C148.516 57.3006 147.713 57.4721 146.863 57.4721C145.647 57.4721 144.662 57.1331 143.906 56.455C143.157 55.7769 142.783 54.9196 142.783 53.883C142.783 52.6516 143.294 51.6773 144.315 50.9603C145.344 50.2433 146.774 49.8847 148.605 49.8847H151.142V48.4468C151.142 47.5427 150.862 46.8334 150.3 46.319C149.747 45.7969 148.937 45.5358 147.869 45.5358C146.895 45.5358 146.088 45.7852 145.449 46.284C144.81 46.7828 144.49 47.3829 144.49 48.0844L143.087 48.0727C143.087 47.0673 143.555 46.1982 144.49 45.4656C145.425 44.7252 146.575 44.355 147.939 44.355C149.35 44.355 150.46 44.7096 151.271 45.4189C152.089 46.1203 152.51 47.1023 152.533 48.3649V54.3506C152.533 55.5743 152.662 56.4901 152.919 57.098V57.2383H151.423ZM147.027 56.2329C147.962 56.2329 148.796 56.0068 149.529 55.5548C150.269 55.1028 150.807 54.4987 151.142 53.7427V50.9603H148.64C147.245 50.9759 146.154 51.2331 145.367 51.7319C144.58 52.2229 144.186 52.901 144.186 53.7661C144.186 54.4753 144.447 55.0638 144.969 55.5314C145.499 55.9991 146.185 56.2329 147.027 56.2329Z" fill="white"/>
<path d="M166.106 55.2275L169.801 44.5888H171.309L165.908 59.3894L165.627 60.0441C164.933 61.5795 163.862 62.3472 162.412 62.3472C162.077 62.3472 161.718 62.2926 161.337 62.1835L161.325 61.0261L162.05 61.0962C162.736 61.0962 163.289 60.9248 163.71 60.5819C164.138 60.2467 164.501 59.6661 164.797 58.8399L165.417 57.1331L160.647 44.5888H162.178L166.106 55.2275Z" fill="white"/>
<path d="M182.485 57.2383H181.082V51.919C179.929 52.3398 178.826 52.5503 177.774 52.5503C176.098 52.5503 174.882 52.1839 174.126 51.4513C173.37 50.7109 172.977 49.5613 172.946 48.0025V44.5888H174.337V47.9324C174.352 49.1404 174.617 50.0133 175.132 50.5511C175.654 51.0811 176.535 51.3461 177.774 51.3461C178.904 51.3149 180.007 51.1123 181.082 50.7382V44.5888H182.485V57.2383Z" fill="white"/>
<path d="M191.125 57.4721C190.049 57.4721 189.075 57.2071 188.202 56.6771C187.337 56.1471 186.663 55.4106 186.18 54.4676C185.696 53.5167 185.455 52.4528 185.455 51.276V50.7733C185.455 49.5574 185.689 48.4624 186.156 47.4881C186.632 46.5139 187.29 45.7501 188.132 45.1967C188.974 44.6356 189.886 44.355 190.868 44.355C192.403 44.355 193.619 44.8811 194.515 45.9332C195.419 46.9776 195.871 48.4078 195.871 50.2238V51.0071H186.846V51.276C186.846 52.71 187.255 53.9064 188.073 54.865C188.9 55.8159 189.936 56.2913 191.183 56.2913C191.931 56.2913 192.59 56.1549 193.159 55.8821C193.736 55.6094 194.258 55.1729 194.726 54.5728L195.602 55.2391C194.574 56.7278 193.081 57.4721 191.125 57.4721ZM190.868 45.5475C189.815 45.5475 188.927 45.9332 188.202 46.7048C187.485 47.4764 187.049 48.513 186.893 49.8146H194.48V49.6626C194.441 48.4468 194.094 47.457 193.44 46.6932C192.785 45.9294 191.928 45.5475 190.868 45.5475Z" fill="white"/>
<path d="M207.539 45.7813H202.933V57.2383H201.53V45.7813H197.099V44.5888H207.539V45.7813Z" fill="white"/>
<path d="M217.64 57.2383C217.499 56.8408 217.41 56.2524 217.371 55.473C216.88 56.1121 216.252 56.607 215.488 56.9577C214.732 57.3006 213.93 57.4721 213.08 57.4721C211.864 57.4721 210.878 57.1331 210.122 56.455C209.374 55.7769 209 54.9196 209 53.883C209 52.6516 209.511 51.6773 210.532 50.9603C211.56 50.2433 212.991 49.8847 214.822 49.8847H217.359V48.4468C217.359 47.5427 217.078 46.8334 216.517 46.319C215.964 45.7969 215.153 45.5358 214.086 45.5358C213.111 45.5358 212.305 45.7852 211.666 46.284C211.026 46.7828 210.707 47.3829 210.707 48.0844L209.304 48.0727C209.304 47.0673 209.772 46.1982 210.707 45.4656C211.642 44.7252 212.792 44.355 214.156 44.355C215.566 44.355 216.677 44.7096 217.488 45.4189C218.306 46.1203 218.727 47.1023 218.75 48.3649V54.3506C218.75 55.5743 218.879 56.4901 219.136 57.098V57.2383H217.64ZM213.244 56.2329C214.179 56.2329 215.013 56.0068 215.746 55.5548C216.486 55.1028 217.024 54.4987 217.359 53.7427V50.9603H214.857C213.462 50.9759 212.371 51.2331 211.584 51.7319C210.797 52.2229 210.403 52.901 210.403 53.7661C210.403 54.4753 210.664 55.0638 211.186 55.5314C211.716 55.9991 212.402 56.2329 213.244 56.2329Z" fill="white"/>
<path d="M91.1034 37.6487H65.6472V32.5983L77.6611 19.7936C79.3106 17.9911 80.5264 16.4182 81.3086 15.0748C82.1079 13.7314 82.5075 12.456 82.5075 11.2487C82.5075 9.59923 82.0909 8.30686 81.2576 7.3716C80.4244 6.41933 79.234 5.94319 77.6866 5.94319C76.0201 5.94319 74.7023 6.52135 73.733 7.67768C72.7807 8.81701 72.3046 10.3219 72.3046 12.1925H64.9075C64.9075 9.93082 65.4431 7.86474 66.5144 5.9942C67.6027 4.12367 69.1332 2.66126 71.1057 1.60696C73.0783 0.535652 75.3144 0 77.8141 0C81.6402 0 84.6076 0.918261 86.7162 2.75478C88.8418 4.59131 89.9046 7.18454 89.9046 10.5345C89.9046 12.371 89.4284 14.2416 88.4762 16.1461C87.5239 18.0506 85.8914 20.2698 83.5788 22.8035L75.1359 31.7055H91.1034V37.6487Z" fill="white"/>
<path d="M113.55 37.6487H106.178V9.23363L97.3782 11.9629V5.9687L112.759 0.459131H113.55V37.6487Z" fill="white"/>
<path d="M126.431 37.6487V0.510145H139.44C143.946 0.510145 147.364 1.37739 149.694 3.11189C152.023 4.82937 153.188 7.35459 153.188 10.6875C153.188 12.5071 152.72 14.114 151.785 15.5084C150.85 16.8858 149.549 17.8976 147.883 18.5438C149.787 19.0199 151.284 19.9807 152.372 21.4261C153.477 22.8715 154.03 24.64 154.03 26.7316C154.03 30.3026 152.89 33.0064 150.612 34.8429C148.333 36.6794 145.085 37.6147 140.868 37.6487H126.431ZM134.083 21.4771V31.5015H140.639C142.441 31.5015 143.844 31.0763 144.847 30.2261C145.868 29.3589 146.378 28.1685 146.378 26.6551C146.378 23.2541 144.618 21.5281 141.098 21.4771H134.083ZM134.083 16.0696H139.746C143.606 16.0016 145.536 14.4626 145.536 11.4528C145.536 9.76928 145.043 8.56194 144.056 7.83073C143.087 7.08251 141.548 6.70841 139.44 6.70841H134.083V16.0696Z" fill="white"/>
<path d="M182.139 21.5536H167.447V31.5015H184.69V37.6487H159.794V0.510145H184.639V6.70841H167.447V15.5594H182.139V21.5536Z" fill="white"/>
<path d="M201.295 22.4719H196.882V37.6487H189.23V0.510145H196.882V15.3809H200.376L209.457 0.510145H218.793L207.34 18.0846L219.992 37.6487H210.86L201.295 22.4719Z" fill="white"/>
<path d="M2.47409 17.1776L6.80375 21.5073C6.04465 23.7845 5.62293 26.2305 5.62293 28.7608C5.62293 41.1594 15.7161 51.2526 28.1147 51.2526C40.5132 51.2526 50.6064 41.1594 50.6064 28.7608C50.6064 16.3623 40.5132 6.26911 28.1147 6.26911C25.5843 6.26911 23.1384 6.69083 20.8611 7.44993L16.5595 3.14838C20.102 1.54585 24.0099 0.646179 28.1147 0.646179C43.634 0.646179 56.2293 13.2415 56.2293 28.7608C56.2293 44.2801 43.634 56.8755 28.1147 56.8755C12.5954 56.8755 0 44.2801 0 28.7608C0 24.628 0.89967 20.7201 2.47409 17.1776ZM11.2459 28.7608C11.2459 19.4549 18.8087 11.892 28.1147 11.892C37.4206 11.892 44.9835 19.4549 44.9835 28.7608C44.9835 38.0668 37.4206 45.6296 28.1147 45.6296C18.8087 45.6296 11.2459 38.0668 11.2459 28.7608ZM14.0573 10.4863C14.0573 12.8198 12.1736 14.7035 9.84013 14.7035C7.50662 14.7035 5.62293 12.8198 5.62293 10.4863C5.62293 8.15279 7.50662 6.26911 9.84013 6.26911C12.1736 6.26911 14.0573 8.15279 14.0573 10.4863Z" fill="white"/>
</svg>
